<svg width="13" height="16" viewBox="0 0 13 16" version="1.1" xmlns="http://www.w3.org/2000/svg" xmlns:xlink="http://www.w3.org/1999/xlink">
<title>delete</title>
<desc>Created using Figma</desc>
<g id="Canvas" transform="translate(-2580 -222)">
<g id="delete">
<g id="Group">
<g id="Group">
<g id="Vector">
<use xlink:href="#path0_fill" transform="translate(2580 222)" fill="#707070"/>
</g>
<g id="Vector">
<use xlink:href="#path1_fill" transform="translate(2583.73 230.277)" fill="#707070"/>
</g>
<g id="Vector">
<use xlink:href="#path2_fill" transform="translate(2586.06 230.277)" fill="#707070"/>
</g>
<g id="Vector">
<use xlink:href="#path3_fill" transform="translate(2588.4 230.277)" fill="#707070"/>
</g>
</g>
</g>
</g>
</g>
<defs>
<path id="path0_fill" d="M 11.1635 1.91693L 8.66116 1.91693C 8.53633 0.839618 7.61538 0 6.49998 0C 5.38462 0 4.4638 0.839585 4.33898 1.91693L 1.83647 1.91693C 0.823782 1.91693 -4.06777e-08 2.73705 -4.06777e-08 3.74492L -4.06777e-08 3.83871C -4.06777e-08 4.60891 0.481853 5.26814 1.16065 5.53675L 1.16065 14.172C 1.16065 15.1799 1.98453 16 2.99715 16L 10.0029 16C 11.0155 16 11.8394 15.1799 11.8394 14.172L 11.8394 5.53678C 12.5181 5.26814 13 4.60891 13 3.83874L 13 3.74495C 13 2.73705 12.1762 1.91693 11.1635 1.91693ZM 6.49998 0.866913C 7.13436 0.866913 7.66386 1.31946 7.78103 1.91693L 5.21917 1.91693C 5.33631 1.31942 5.86584 0.866913 6.49998 0.866913ZM 10.9683 14.172C 10.9683 14.7019 10.5351 15.1331 10.0028 15.1331L 2.99712 15.1331C 2.46485 15.1331 2.03165 14.7019 2.03165 14.172L 2.03165 5.66669L 10.9683 5.66669L 10.9683 14.172ZM 12.129 3.83871C 12.129 4.36863 11.6958 4.79981 11.1635 4.79981L 1.83647 4.79981C 1.3042 4.79981 0.871001 4.36863 0.871001 3.83871L 0.871001 3.74492C 0.871001 3.215 1.3042 2.78381 1.83647 2.78381L 11.1635 2.78381C 11.6958 2.78381 12.129 3.215 12.129 3.74492L 12.129 3.83871L 12.129 3.83871Z"/>
<path id="path1_fill" d="M 0.4355 5.74732C 0.676027 5.74732 0.871001 5.5532 0.871001 5.31391L 0.871001 0.433473C 0.871001 0.194151 0.675994 -2.83397e-08 0.4355 -2.83397e-08C 0.195007 -2.83397e-08 -9.74241e-08 0.194151 -9.74241e-08 0.433473L -9.74241e-08 5.31391C -3.34206e-05 5.55327 0.194974 5.74732 0.4355 5.74732Z"/>
<path id="path2_fill" d="M 0.435501 5.74732C 0.676027 5.74732 0.871034 5.5532 0.871034 5.31391L 0.871034 0.433473C 0.871034 0.194151 0.675961 -2.83397e-08 0.435501 -2.83397e-08C 0.195007 -2.83397e-08 1.42372e-07 0.194151 1.42372e-07 0.433473L 1.42372e-07 5.31391C 1.42372e-07 5.55327 0.194974 5.74732 0.435501 5.74732Z"/>
<path id="path3_fill" d="M 0.435534 5.74732C 0.676027 5.74732 0.871001 5.5532 0.871001 5.31391L 0.871001 0.433473C 0.871001 0.194151 0.675994 -2.83397e-08 0.435534 -2.83397e-08C 0.194974 -2.83397e-08 -3.53695e-07 0.194151 -3.53695e-07 0.433473L -3.53695e-07 5.31391C -3.36769e-05 5.55327 0.19504 5.74732 0.435534 5.74732Z"/>
</defs>
</svg>
