<svg width="16" height="16" viewBox="0 0 16 16" version="1.1" xmlns="http://www.w3.org/2000/svg" xmlns:xlink="http://www.w3.org/1999/xlink">
<title>help</title>
<desc>Created using Figma</desc>
<g id="Canvas" transform="translate(-2707 -223)">
<g id="help">
<g id="Group">
<g id="Vector">
<use xlink:href="#path0_fill" transform="translate(2707 223)" fill="#707070"/>
</g>
<g id="Vector">
<use xlink:href="#path1_fill" transform="translate(2714.69 234.385)" fill="#707070"/>
</g>
<g id="Vector">
<use xlink:href="#path2_fill" transform="translate(2712.54 225.769)" fill="#707070"/>
</g>
</g>
</g>
</g>
<defs>
<path id="path0_fill" d="M 8 0C 3.58862 0 0 3.58862 0 8C 0 12.4114 3.58862 16 8 16C 12.4114 16 16 12.4114 16 8C 16 3.58862 12.4114 0 8 0ZM 8 15.3846C 3.92831 15.3846 0.615385 12.0717 0.615385 8C 0.615385 3.92831 3.92831 0.615385 8 0.615385C 12.0717 0.615385 15.3846 3.92831 15.3846 8C 15.3846 12.0717 12.0717 15.3846 8 15.3846Z"/>
<path id="path1_fill" d="M 0.307692 0C 0.137538 0 0 0.137538 0 0.307692L 0 0.923077C 0 1.09323 0.137538 1.23077 0.307692 1.23077C 0.477846 1.23077 0.615385 1.09323 0.615385 0.923077L 0.615385 0.307692C 0.615385 0.137538 0.477846 0 0.307692 0Z"/>
<path id="path2_fill" d="M 2.49631 0.000307817C 2.48462 0.000307817 2.47292 0 2.46092 0C 1.80985 0 1.19754 0.250769 0.733231 0.708923C 0.260615 1.17508 0 1.79754 0 2.46154C 0 2.63169 0.137538 2.76923 0.307692 2.76923C 0.477846 2.76923 0.615385 2.63169 0.615385 2.46154C 0.615385 1.96369 0.810769 1.49662 1.16523 1.14708C 1.52 0.797231 1.99231 0.604 2.488 0.615692C 3.46062 0.629231 4.29385 1.46246 4.30738 2.43508C 4.31631 3.07631 4 3.66646 3.46092 4.01415C 2.64246 4.54215 2.15385 5.47508 2.15385 6.51015L 2.15385 7.38461C 2.15385 7.55477 2.29138 7.69231 2.46154 7.69231C 2.63169 7.69231 2.76923 7.55477 2.76923 7.38461L 2.76923 6.51015C 2.76923 5.69723 3.16185 4.93938 3.79446 4.53108C 4.51292 4.06769 4.93477 3.28092 4.92277 2.42646C 4.90431 1.10738 3.81569 0.0187694 2.49631 0.000307817Z"/>
</defs>
</svg>
