<svg width="11" height="11" viewBox="0 0 11 11" version="1.1" xmlns="http://www.w3.org/2000/svg" xmlns:xlink="http://www.w3.org/1999/xlink">
<title>merged_blue</title>
<desc>Created using Figma</desc>
<g id="Canvas" transform="translate(-1777 -284)">
<g id="merged_blue">
<g id="Group">
<g id="Group">
<g id="Vector">
<use xlink:href="#path0_fill" transform="translate(1777 284)" fill="#5D3CAE"/>
</g>
</g>
</g>
</g>
</g>
<defs>
<path id="path0_fill" d="M 10.0834 7.93704L 10.0834 7.33214C 10.0834 6.01235 9.0201 4.9492 7.70015 4.9492L 6.41688 4.9492L 6.41688 3.29947L 7.16852 3.29947C 7.37019 3.29947 7.53518 3.17116 7.64517 2.98784C 7.75517 2.80455 7.73685 2.58458 7.6085 2.41961L 6.06856 0.293279C 5.9402 0.109982 5.73855 0 5.50022 0C 5.2619 0 5.06023 0.109982 4.91356 0.311623L 3.37362 2.43795C 3.26363 2.60293 3.2453 2.82289 3.33695 3.00619C 3.4286 3.18948 3.63027 3.29947 3.83193 3.29947L 4.7669 3.29947L 4.7669 4.9492L 3.30028 4.9492C 1.98033 4.9492 0.917047 6.01235 0.917047 7.33214L 0.917047 7.95536C 0.36709 8.212 0.0187775 8.74358 0.000430611 9.34848C -0.0178948 10.155 0.550409 10.8332 1.37538 10.9799C 1.85203 11.0532 2.34701 10.9249 2.71365 10.6133C 3.08031 10.2833 3.3003 9.82508 3.3003 9.34848C 3.3003 8.72526 2.95199 8.212 2.38366 7.93704L 2.38366 7.33214C 2.38366 6.81889 2.78697 6.41561 3.3003 6.41561L 4.76692 6.41561L 4.76692 7.95536C 4.21694 8.212 3.86863 8.74356 3.85028 9.34846C 3.83195 10.155 4.40026 10.8332 5.22523 10.9799C 5.70188 11.0532 6.19686 10.9249 6.5635 10.6133C 6.93016 10.2833 7.15015 9.82506 7.15015 9.34846C 7.15015 8.72524 6.80184 8.21197 6.23351 7.93702L 6.23351 6.41559L 7.70013 6.41559C 8.21344 6.41559 8.61677 6.81885 8.61677 7.33212L 8.61677 7.95534C 8.06679 8.21197 7.71848 8.74354 7.70013 9.34844C 7.6818 10.155 8.25011 10.8332 9.07508 10.9799C 9.16675 10.9982 9.2584 10.9982 9.35007 10.9982C 9.73505 10.9982 10.12 10.8699 10.4133 10.6132C 10.78 10.2833 11 9.82504 11 9.34844C 11 8.72526 10.6517 8.212 10.0834 7.93704ZM 10.175 10.32C 9.88172 10.5766 9.51506 10.6683 9.13007 10.6133C 8.48843 10.5033 8.04844 9.97171 8.06679 9.34848C 8.08511 8.85357 8.39678 8.43196 8.87343 8.23034C 8.94675 8.21202 8.98343 8.13868 8.98343 8.06537L 8.98343 7.33216C 8.98343 6.61728 8.41512 6.04904 7.70015 6.04904L 6.05022 6.04904C 5.94022 6.04904 5.8669 6.12235 5.8669 6.23234L 5.8669 8.06537C 5.8669 8.13868 5.90357 8.21202 5.97689 8.23034C 6.4902 8.4503 6.78354 8.85357 6.78354 9.34848C 6.78354 9.73342 6.61854 10.0817 6.32523 10.32C 6.03191 10.5766 5.66525 10.6683 5.28027 10.6133C 4.63862 10.5033 4.19864 9.97171 4.21698 9.34848C 4.23531 8.85357 4.54697 8.43196 5.02362 8.23034C 5.09695 8.21202 5.13362 8.13868 5.13362 8.06537L 5.13362 6.23234C 5.13362 6.12235 5.0603 6.04904 4.9503 6.04904L 3.30037 6.04904C 2.58539 6.04904 2.01709 6.61728 2.01709 7.33216L 2.01709 8.06537C 2.01709 8.13868 2.05376 8.21202 2.12709 8.23034C 2.64039 8.4503 2.93373 8.85357 2.93373 9.34848C 2.93373 9.73342 2.76873 10.0817 2.47542 10.32C 2.18211 10.5766 1.81545 10.6683 1.43046 10.6133C 0.788812 10.5033 0.348829 9.97171 0.367176 9.34848C 0.385501 8.85357 0.697163 8.43196 1.17382 8.212C 1.24714 8.19367 1.28381 8.12034 1.28381 8.04702L 1.28381 7.31381C 1.28381 6.19567 2.18211 5.29747 3.30041 5.29747L 4.95034 5.29747C 5.06034 5.29747 5.13366 5.22415 5.13366 5.11417L 5.13366 3.09782C 5.13366 2.98784 5.06034 2.91453 4.95034 2.91453L 3.83206 2.91453C 3.75874 2.91453 3.70374 2.87786 3.66707 2.82287C 3.6304 2.76788 3.64874 2.69456 3.68539 2.63957L 5.22533 0.513243C 5.35365 0.329946 5.64699 0.329946 5.77531 0.513243L 7.31525 2.6579C 7.35192 2.71289 7.37025 2.7862 7.33358 2.84119C 7.29691 2.89618 7.24191 2.93285 7.16858 2.93285L 6.23362 2.93285C 6.12362 2.93285 6.0503 3.00616 6.0503 3.11615L 6.0503 5.13249C 6.0503 5.24248 6.12362 5.31579 6.23362 5.31579L 7.70024 5.31579C 8.81852 5.31579 9.71683 6.21397 9.71683 7.33214L 9.71683 8.06534C 9.71683 8.13866 9.7535 8.212 9.82683 8.23032C 10.3401 8.45028 10.6335 8.85354 10.6335 9.34846C 10.6334 9.73342 10.4684 10.0817 10.175 10.32Z"/>
</defs>
</svg>
